<?xml version="1.0" encoding="UTF-8"?>
<svg width="1200pt" height="1200pt" version="1.1" viewBox="0 0 1200 1200" xmlns="http://www.w3.org/2000/svg">
 <g>
  <path d="m640 40h-80c-137.86 0.16016-270.04 54.996-367.52 152.48s-152.32 229.66-152.48 367.52c0 10.609 4.2148 20.781 11.715 28.285 7.5039 7.5 17.676 11.715 28.285 11.715h1040c10.609 0 20.781-4.2148 28.285-11.715 7.5-7.5039 11.715-17.676 11.715-28.285-0.16016-137.86-54.996-270.04-152.48-367.52s-229.66-152.32-367.52-152.48zm-518.2 480c10.109-109.27 60.633-210.83 141.68-284.81s186.79-115.05 296.52-115.19h80c109.73 0.13281 215.47 41.207 296.52 115.19s131.57 175.54 141.68 284.81z"/>
  <path d="m1120 840h-160c-8.6562 0-17.074 2.8086-24 8l-136 102-136-102c-6.9258-5.1914-15.344-8-24-8h-560c-10.609 0-20.781 4.2148-28.285 11.715-7.5 7.5039-11.715 17.676-11.715 28.285v80c0.0625 53.023 21.156 103.86 58.648 141.35 37.492 37.492 88.328 58.586 141.35 58.648h720c53.023-0.0625 103.86-21.156 141.35-58.648 37.492-37.492 58.586-88.328 58.648-141.35v-80c0-10.609-4.2148-20.781-11.715-28.285-7.5039-7.5-17.676-11.715-28.285-11.715zm-40 120c0 31.824-12.645 62.348-35.148 84.852-22.504 22.504-53.027 35.148-84.852 35.148h-720c-31.824 0-62.348-12.645-84.852-35.148-22.504-22.504-35.148-53.027-35.148-84.852v-40h506.68l149.32 112c6.9258 5.1914 15.344 8 24 8s17.074-2.8086 24-8l149.32-112h106.68z"/>
  <path d="m1120 680h-1040c-14.289 0-27.496 7.625-34.641 20s-7.1445 27.625 0 40 20.352 20 34.641 20h1040c14.289 0 27.496-7.625 34.641-20s7.1445-27.625 0-40-20.352-20-34.641-20z"/>
  <path d="m400 280c-10.609 0-20.781 4.2148-28.285 11.715-7.5 7.5039-11.715 17.676-11.715 28.285v40c0 14.289 7.625 27.496 20 34.641s27.625 7.1445 40 0 20-20.352 20-34.641v-40c0-10.609-4.2148-20.781-11.715-28.285-7.5039-7.5-17.676-11.715-28.285-11.715z"/>
  <path d="m600 280c-10.609 0-20.781 4.2148-28.285 11.715-7.5 7.5039-11.715 17.676-11.715 28.285v40c0 14.289 7.625 27.496 20 34.641s27.625 7.1445 40 0 20-20.352 20-34.641v-40c0-10.609-4.2148-20.781-11.715-28.285-7.5039-7.5-17.676-11.715-28.285-11.715z"/>
  <path d="m800 280c-10.609 0-20.781 4.2148-28.285 11.715-7.5 7.5039-11.715 17.676-11.715 28.285v40c0 14.289 7.625 27.496 20 34.641s27.625 7.1445 40 0 20-20.352 20-34.641v-40c0-10.609-4.2148-20.781-11.715-28.285-7.5039-7.5-17.676-11.715-28.285-11.715z"/>
 </g>
</svg>
